<svg width="91" height="91" viewBox="0 0 91 91" fill="none" xmlns="http://www.w3.org/2000/svg">
<path d="M62.1373 34.1559H20.9364L29.3659 25.7264C29.648 25.4443 29.8718 25.1093 30.0245 24.7407C30.1772 24.3721 30.2558 23.977 30.2558 23.578C30.2558 23.179 30.1772 22.7839 30.0245 22.4153C29.8718 22.0467 29.648 21.7117 29.3659 21.4296C29.0838 21.1474 28.7488 20.9236 28.3802 20.7709C28.0115 20.6182 27.6164 20.5396 27.2173 20.5396C26.8183 20.5396 26.4232 20.6182 26.0545 20.7709C25.6859 20.9236 25.3509 21.1474 25.0688 21.4296L11.453 35.0461C11.1709 35.3282 10.9471 35.6632 10.7944 36.0318C10.6417 36.4004 10.5631 36.7955 10.5631 37.1945C10.5631 37.5935 10.6417 37.9886 10.7944 38.3572C10.9471 38.7258 11.1709 39.0607 11.453 39.3429L25.0688 52.9587C25.3506 53.2412 25.6855 53.4653 26.0542 53.618C26.4228 53.7708 26.8181 53.8491 27.2172 53.8485C27.8181 53.8485 28.4055 53.6704 28.9052 53.3365C29.4048 53.0027 29.7942 52.5281 30.0242 51.973C30.2541 51.4178 30.3143 50.8069 30.1971 50.2175C30.0798 49.6282 29.7905 49.0868 29.3656 48.6619L20.9361 40.2324H62.1369C68.7141 40.2324 74.0651 45.5835 74.0651 52.1606C74.0651 58.7378 68.7141 64.0888 62.1369 64.0888H37.074C35.3958 64.0888 34.0357 65.4489 34.0357 67.1271C34.0357 68.8052 35.3958 70.1653 37.074 70.1653H62.1369C72.0646 70.1653 80.1416 62.0883 80.1416 52.1606C80.1416 42.2329 72.0649 34.1559 62.1373 34.1559Z" fill="#9E9E9E"/>
</svg>
