<svg width="91" height="91" viewBox="0 0 91 91" fill="none" xmlns="http://www.w3.org/2000/svg">
<path d="M76.0232 27.6026C75.9856 25.6265 75.9497 23.7598 75.9497 21.9538C75.9497 21.2744 75.6798 20.6228 75.1994 20.1423C74.7189 19.6619 74.0673 19.392 73.3879 19.392C62.4317 19.392 54.0899 16.2433 47.1367 9.48275C46.6586 9.01759 46.0178 8.75732 45.3508 8.75732C44.6837 8.75732 44.0429 9.01759 43.5648 9.48275C36.6123 16.2433 28.2719 19.392 17.3164 19.392C16.6369 19.392 15.9853 19.6619 15.5049 20.1423C15.0244 20.6228 14.7545 21.2744 14.7545 21.9538C14.7545 23.7601 14.719 25.6275 14.6811 27.6039C14.3299 45.9933 13.849 71.1783 44.5117 81.8066C45.0551 81.9951 45.6461 81.9951 46.1895 81.8066C76.8546 71.178 76.3743 45.9922 76.0232 27.6026ZM45.3509 76.6675C19.0537 67.1145 19.4513 46.1876 19.8041 27.7016C19.8253 26.5922 19.8458 25.5169 19.8601 24.4628C30.1212 24.0296 38.3267 20.9202 45.3509 14.8012C52.3759 20.9202 60.5827 24.03 70.8444 24.4628C70.8588 25.5165 70.8793 26.5911 70.9005 27.6999C71.253 46.1866 71.6502 67.1142 45.3509 76.6675Z" fill="#9E9E9E"/>
<path d="M54.1729 36.4532L41.8081 48.8174L36.5317 43.541C36.0485 43.0739 35.4011 42.8154 34.7291 42.8211C34.0571 42.8268 33.4142 43.0963 32.9391 43.5715C32.4639 44.0468 32.1944 44.6897 32.1888 45.3617C32.1831 46.0337 32.4417 46.681 32.9089 47.1641L39.9967 54.2519C40.2343 54.4901 40.5167 54.679 40.8275 54.8077C41.1384 54.9365 41.4716 55.0025 41.8081 55.0021C42.1445 55.0025 42.4777 54.9365 42.7886 54.8077C43.0995 54.679 43.3818 54.4901 43.6195 54.2519L57.7954 40.0763C58.0334 39.8385 58.2221 39.5562 58.3509 39.2454C58.4797 38.9346 58.5461 38.6014 58.5461 38.265C58.5461 37.9286 58.4799 37.5955 58.3511 37.2846C58.2224 36.9738 58.0336 36.6914 57.7957 36.4535C57.3153 35.9731 56.6638 35.7032 55.9844 35.7031C55.305 35.7031 54.6534 35.9729 54.1729 36.4532Z" fill="#9E9E9E"/>
</svg>
