<svg width="98" height="98" viewBox="0 0 98 98" fill="none" xmlns="http://www.w3.org/2000/svg">
<mask id="path-1-outside-1_215_124" maskUnits="userSpaceOnUse" x="9.68478" y="12.8525" width="78" height="71" fill="black">
<rect fill="white" x="9.68478" y="12.8525" width="78" height="71"/>
<path d="M86.3886 44.0824C86.081 42.1879 85.1717 40.4426 83.7953 39.1049C82.4189 37.7671 80.6484 36.9079 78.7458 36.6545C78.3806 36.6187 78.0138 36.6018 77.6468 36.6039V32.8015C77.6408 27.7778 75.6424 22.9615 72.0901 19.4092C68.5378 15.8569 63.7216 13.8586 58.6978 13.8525H38.4856C33.4619 13.8586 28.6456 15.8569 25.0933 19.4092C21.541 22.9615 19.5427 27.7778 19.5367 32.8015V36.6039C19.1697 36.6018 18.8029 36.6187 18.4376 36.6545C16.535 36.9079 14.7646 37.7671 13.3882 39.1049C12.0118 40.4426 11.1025 42.1879 10.7949 44.0824C10.4572 46.1949 10.9024 48.3579 12.0468 50.1653C13.1913 51.9726 14.9562 53.3 17.0101 53.898V70.6994C17.0131 71.7036 17.4134 72.6658 18.1235 73.3759C18.8335 74.086 19.7957 74.4862 20.7999 74.4892V82.0688C20.7999 82.4038 20.933 82.7251 21.1699 82.962C21.4068 83.199 21.7282 83.332 22.0632 83.332H25.853C26.1279 83.3313 26.3951 83.2408 26.614 83.0744C26.8329 82.9079 26.9915 82.6746 27.0657 82.4099L29.327 74.4892H67.8565L70.1177 82.4099C70.192 82.6746 70.3506 82.9079 70.5694 83.0744C70.7883 83.2408 71.0555 83.3313 71.3305 83.332H75.1203C75.4553 83.332 75.7766 83.199 76.0135 82.962C76.2504 82.7251 76.3835 82.4038 76.3835 82.0688V74.4892C77.3877 74.4862 78.3499 74.086 79.06 73.3759C79.7701 72.6658 80.1703 71.7036 80.1733 70.6994V53.898C82.2273 53.3 83.9922 51.9726 85.1366 50.1653C86.2811 48.3579 86.7263 46.1949 86.3886 44.0824ZM22.0632 32.8015C22.0672 28.4472 23.7987 24.2725 26.8776 21.1935C29.9566 18.1146 34.1314 16.3831 38.4856 16.3791H58.6978C63.0521 16.3831 67.2269 18.1146 70.3058 21.1935C73.3847 24.2725 75.1162 28.4472 75.1203 32.8015V36.9703C73.2945 37.5095 71.6924 38.6255 70.5538 40.1512C69.4152 41.677 68.8013 43.5304 68.8039 45.4341V49.4513C68.3988 49.3042 67.9716 49.2273 67.5407 49.2239H29.6428C29.2118 49.2273 28.7846 49.3042 28.3795 49.4513V45.4341C28.3822 43.5304 27.7682 41.677 26.6296 40.1512C25.491 38.6255 23.889 37.5095 22.0632 36.9703V32.8015ZM68.8039 53.0137V59.33H28.3795V53.0137C28.3795 52.6787 28.5126 52.3574 28.7495 52.1205C28.9864 51.8835 29.3077 51.7505 29.6428 51.7505H67.5407C67.8757 51.7505 68.197 51.8835 68.4339 52.1205C68.6709 52.3574 68.8039 52.6787 68.8039 53.0137ZM24.9055 80.8055H23.3265V74.4892H26.6994L24.9055 80.8055ZM73.857 80.8055H72.2779L70.4841 74.4892H73.857V80.8055ZM78.6953 51.6494C78.4017 51.7021 78.136 51.8561 77.9444 52.0847C77.7527 52.3132 77.6474 52.6018 77.6468 52.9V70.6994C77.6468 71.0344 77.5137 71.3558 77.2768 71.5927C77.0399 71.8296 76.7186 71.9627 76.3835 71.9627H20.7999C20.4649 71.9627 20.1436 71.8296 19.9067 71.5927C19.6698 71.3558 19.5367 71.0344 19.5367 70.6994V52.9C19.536 52.6018 19.4307 52.3132 19.2391 52.0847C19.0475 51.8561 18.7817 51.7021 18.4882 51.6494C16.9946 51.3991 15.6409 50.6199 14.6744 49.4541C13.7078 48.2884 13.1928 46.8138 13.2234 45.2997C13.2541 43.7857 13.8283 42.3332 14.8413 41.2075C15.8543 40.0818 17.2384 39.358 18.7408 39.1683C19.0046 39.1327 19.2705 39.1158 19.5367 39.1178H19.5493C21.0878 39.115 22.5729 39.6821 23.7181 40.7095C24.3875 41.3015 24.9239 42.0287 25.2918 42.843C25.6598 43.6574 25.8511 44.5405 25.853 45.4341V60.5933C25.853 60.9283 25.9861 61.2497 26.223 61.4866C26.4599 61.7235 26.7812 61.8566 27.1162 61.8566H70.0672C70.4022 61.8566 70.7236 61.7235 70.9605 61.4866C71.1974 61.2497 71.3305 60.9283 71.3305 60.5933V45.4341C71.3324 44.5405 71.5236 43.6574 71.8916 42.843C72.2596 42.0287 72.796 41.3015 73.4654 40.7095C74.1346 40.1086 74.926 39.6597 75.7852 39.3937C76.6444 39.1276 77.5509 39.0508 78.4426 39.1683C79.7982 39.3439 81.0607 39.9528 82.0418 40.9044C83.023 41.856 83.6704 43.0993 83.8873 44.4488V44.4614C84.1483 46.1026 83.7485 47.7803 82.7754 49.1274C81.8024 50.4746 80.3353 51.3814 78.6953 51.6494Z"/>
</mask>
<path d="M86.3886 44.0824C86.081 42.1879 85.1717 40.4426 83.7953 39.1049C82.4189 37.7671 80.6484 36.9079 78.7458 36.6545C78.3806 36.6187 78.0138 36.6018 77.6468 36.6039V32.8015C77.6408 27.7778 75.6424 22.9615 72.0901 19.4092C68.5378 15.8569 63.7216 13.8586 58.6978 13.8525H38.4856C33.4619 13.8586 28.6456 15.8569 25.0933 19.4092C21.541 22.9615 19.5427 27.7778 19.5367 32.8015V36.6039C19.1697 36.6018 18.8029 36.6187 18.4376 36.6545C16.535 36.9079 14.7646 37.7671 13.3882 39.1049C12.0118 40.4426 11.1025 42.1879 10.7949 44.0824C10.4572 46.1949 10.9024 48.3579 12.0468 50.1653C13.1913 51.9726 14.9562 53.3 17.0101 53.898V70.6994C17.0131 71.7036 17.4134 72.6658 18.1235 73.3759C18.8335 74.086 19.7957 74.4862 20.7999 74.4892V82.0688C20.7999 82.4038 20.933 82.7251 21.1699 82.962C21.4068 83.199 21.7282 83.332 22.0632 83.332H25.853C26.1279 83.3313 26.3951 83.2408 26.614 83.0744C26.8329 82.9079 26.9915 82.6746 27.0657 82.4099L29.327 74.4892H67.8565L70.1177 82.4099C70.192 82.6746 70.3506 82.9079 70.5694 83.0744C70.7883 83.2408 71.0555 83.3313 71.3305 83.332H75.1203C75.4553 83.332 75.7766 83.199 76.0135 82.962C76.2504 82.7251 76.3835 82.4038 76.3835 82.0688V74.4892C77.3877 74.4862 78.3499 74.086 79.06 73.3759C79.7701 72.6658 80.1703 71.7036 80.1733 70.6994V53.898C82.2273 53.3 83.9922 51.9726 85.1366 50.1653C86.2811 48.3579 86.7263 46.1949 86.3886 44.0824ZM22.0632 32.8015C22.0672 28.4472 23.7987 24.2725 26.8776 21.1935C29.9566 18.1146 34.1314 16.3831 38.4856 16.3791H58.6978C63.0521 16.3831 67.2269 18.1146 70.3058 21.1935C73.3847 24.2725 75.1162 28.4472 75.1203 32.8015V36.9703C73.2945 37.5095 71.6924 38.6255 70.5538 40.1512C69.4152 41.677 68.8013 43.5304 68.8039 45.4341V49.4513C68.3988 49.3042 67.9716 49.2273 67.5407 49.2239H29.6428C29.2118 49.2273 28.7846 49.3042 28.3795 49.4513V45.4341C28.3822 43.5304 27.7682 41.677 26.6296 40.1512C25.491 38.6255 23.889 37.5095 22.0632 36.9703V32.8015ZM68.8039 53.0137V59.33H28.3795V53.0137C28.3795 52.6787 28.5126 52.3574 28.7495 52.1205C28.9864 51.8835 29.3077 51.7505 29.6428 51.7505H67.5407C67.8757 51.7505 68.197 51.8835 68.4339 52.1205C68.6709 52.3574 68.8039 52.6787 68.8039 53.0137ZM24.9055 80.8055H23.3265V74.4892H26.6994L24.9055 80.8055ZM73.857 80.8055H72.2779L70.4841 74.4892H73.857V80.8055ZM78.6953 51.6494C78.4017 51.7021 78.136 51.8561 77.9444 52.0847C77.7527 52.3132 77.6474 52.6018 77.6468 52.9V70.6994C77.6468 71.0344 77.5137 71.3558 77.2768 71.5927C77.0399 71.8296 76.7186 71.9627 76.3835 71.9627H20.7999C20.4649 71.9627 20.1436 71.8296 19.9067 71.5927C19.6698 71.3558 19.5367 71.0344 19.5367 70.6994V52.9C19.536 52.6018 19.4307 52.3132 19.2391 52.0847C19.0475 51.8561 18.7817 51.7021 18.4882 51.6494C16.9946 51.3991 15.6409 50.6199 14.6744 49.4541C13.7078 48.2884 13.1928 46.8138 13.2234 45.2997C13.2541 43.7857 13.8283 42.3332 14.8413 41.2075C15.8543 40.0818 17.2384 39.358 18.7408 39.1683C19.0046 39.1327 19.2705 39.1158 19.5367 39.1178H19.5493C21.0878 39.115 22.5729 39.6821 23.7181 40.7095C24.3875 41.3015 24.9239 42.0287 25.2918 42.843C25.6598 43.6574 25.8511 44.5405 25.853 45.4341V60.5933C25.853 60.9283 25.9861 61.2497 26.223 61.4866C26.4599 61.7235 26.7812 61.8566 27.1162 61.8566H70.0672C70.4022 61.8566 70.7236 61.7235 70.9605 61.4866C71.1974 61.2497 71.3305 60.9283 71.3305 60.5933V45.4341C71.3324 44.5405 71.5236 43.6574 71.8916 42.843C72.2596 42.0287 72.796 41.3015 73.4654 40.7095C74.1346 40.1086 74.926 39.6597 75.7852 39.3937C76.6444 39.1276 77.5509 39.0508 78.4426 39.1683C79.7982 39.3439 81.0607 39.9528 82.0418 40.9044C83.023 41.856 83.6704 43.0993 83.8873 44.4488V44.4614C84.1483 46.1026 83.7485 47.7803 82.7754 49.1274C81.8024 50.4746 80.3353 51.3814 78.6953 51.6494Z" fill="#9E9E9E"/>
<path d="M86.3886 44.0824C86.081 42.1879 85.1717 40.4426 83.7953 39.1049C82.4189 37.7671 80.6484 36.9079 78.7458 36.6545C78.3806 36.6187 78.0138 36.6018 77.6468 36.6039V32.8015C77.6408 27.7778 75.6424 22.9615 72.0901 19.4092C68.5378 15.8569 63.7216 13.8586 58.6978 13.8525H38.4856C33.4619 13.8586 28.6456 15.8569 25.0933 19.4092C21.541 22.9615 19.5427 27.7778 19.5367 32.8015V36.6039C19.1697 36.6018 18.8029 36.6187 18.4376 36.6545C16.535 36.9079 14.7646 37.7671 13.3882 39.1049C12.0118 40.4426 11.1025 42.1879 10.7949 44.0824C10.4572 46.1949 10.9024 48.3579 12.0468 50.1653C13.1913 51.9726 14.9562 53.3 17.0101 53.898V70.6994C17.0131 71.7036 17.4134 72.6658 18.1235 73.3759C18.8335 74.086 19.7957 74.4862 20.7999 74.4892V82.0688C20.7999 82.4038 20.933 82.7251 21.1699 82.962C21.4068 83.199 21.7282 83.332 22.0632 83.332H25.853C26.1279 83.3313 26.3951 83.2408 26.614 83.0744C26.8329 82.9079 26.9915 82.6746 27.0657 82.4099L29.327 74.4892H67.8565L70.1177 82.4099C70.192 82.6746 70.3506 82.9079 70.5694 83.0744C70.7883 83.2408 71.0555 83.3313 71.3305 83.332H75.1203C75.4553 83.332 75.7766 83.199 76.0135 82.962C76.2504 82.7251 76.3835 82.4038 76.3835 82.0688V74.4892C77.3877 74.4862 78.3499 74.086 79.06 73.3759C79.7701 72.6658 80.1703 71.7036 80.1733 70.6994V53.898C82.2273 53.3 83.9922 51.9726 85.1366 50.1653C86.2811 48.3579 86.7263 46.1949 86.3886 44.0824ZM22.0632 32.8015C22.0672 28.4472 23.7987 24.2725 26.8776 21.1935C29.9566 18.1146 34.1314 16.3831 38.4856 16.3791H58.6978C63.0521 16.3831 67.2269 18.1146 70.3058 21.1935C73.3847 24.2725 75.1162 28.4472 75.1203 32.8015V36.9703C73.2945 37.5095 71.6924 38.6255 70.5538 40.1512C69.4152 41.677 68.8013 43.5304 68.8039 45.4341V49.4513C68.3988 49.3042 67.9716 49.2273 67.5407 49.2239H29.6428C29.2118 49.2273 28.7846 49.3042 28.3795 49.4513V45.4341C28.3822 43.5304 27.7682 41.677 26.6296 40.1512C25.491 38.6255 23.889 37.5095 22.0632 36.9703V32.8015ZM68.8039 53.0137V59.33H28.3795V53.0137C28.3795 52.6787 28.5126 52.3574 28.7495 52.1205C28.9864 51.8835 29.3077 51.7505 29.6428 51.7505H67.5407C67.8757 51.7505 68.197 51.8835 68.4339 52.1205C68.6709 52.3574 68.8039 52.6787 68.8039 53.0137ZM24.9055 80.8055H23.3265V74.4892H26.6994L24.9055 80.8055ZM73.857 80.8055H72.2779L70.4841 74.4892H73.857V80.8055ZM78.6953 51.6494C78.4017 51.7021 78.136 51.8561 77.9444 52.0847C77.7527 52.3132 77.6474 52.6018 77.6468 52.9V70.6994C77.6468 71.0344 77.5137 71.3558 77.2768 71.5927C77.0399 71.8296 76.7186 71.9627 76.3835 71.9627H20.7999C20.4649 71.9627 20.1436 71.8296 19.9067 71.5927C19.6698 71.3558 19.5367 71.0344 19.5367 70.6994V52.9C19.536 52.6018 19.4307 52.3132 19.2391 52.0847C19.0475 51.8561 18.7817 51.7021 18.4882 51.6494C16.9946 51.3991 15.6409 50.6199 14.6744 49.4541C13.7078 48.2884 13.1928 46.8138 13.2234 45.2997C13.2541 43.7857 13.8283 42.3332 14.8413 41.2075C15.8543 40.0818 17.2384 39.358 18.7408 39.1683C19.0046 39.1327 19.2705 39.1158 19.5367 39.1178H19.5493C21.0878 39.115 22.5729 39.6821 23.7181 40.7095C24.3875 41.3015 24.9239 42.0287 25.2918 42.843C25.6598 43.6574 25.8511 44.5405 25.853 45.4341V60.5933C25.853 60.9283 25.9861 61.2497 26.223 61.4866C26.4599 61.7235 26.7812 61.8566 27.1162 61.8566H70.0672C70.4022 61.8566 70.7236 61.7235 70.9605 61.4866C71.1974 61.2497 71.3305 60.9283 71.3305 60.5933V45.4341C71.3324 44.5405 71.5236 43.6574 71.8916 42.843C72.2596 42.0287 72.796 41.3015 73.4654 40.7095C74.1346 40.1086 74.926 39.6597 75.7852 39.3937C76.6444 39.1276 77.5509 39.0508 78.4426 39.1683C79.7982 39.3439 81.0607 39.9528 82.0418 40.9044C83.023 41.856 83.6704 43.0993 83.8873 44.4488V44.4614C84.1483 46.1026 83.7485 47.7803 82.7754 49.1274C81.8024 50.4746 80.3353 51.3814 78.6953 51.6494Z" stroke="#9E9E9E" stroke-width="0.647891" mask="url(#path-1-outside-1_215_124)"/>
</svg>
