<svg width="91" height="91" viewBox="0 0 91 91" fill="none" xmlns="http://www.w3.org/2000/svg">
<path d="M45.3056 77.9399C44.1396 77.9416 42.9847 77.7131 41.9072 77.2674C40.8298 76.8218 39.8509 76.1678 39.0267 75.3429L35.7206 72.0338C35.3192 71.6301 34.8418 71.3101 34.3159 71.0922C33.79 70.8742 33.2262 70.7627 32.6569 70.7641H28.7841C26.4301 70.7617 24.1731 69.8254 22.5085 68.1608C20.8439 66.4962 19.9076 64.2392 19.9052 61.8851V58.0154C19.907 57.4464 19.796 56.8826 19.5785 56.3568C19.3611 55.8309 19.0416 55.3534 18.6385 54.9517L15.3294 51.6456C13.6669 49.9789 12.7333 47.7208 12.7333 45.3667C12.7333 43.0126 13.6669 40.7546 15.3294 39.0878L18.6385 35.7817C19.0422 35.3803 19.3622 34.9029 19.5802 34.377C19.7981 33.8512 19.9096 33.2873 19.9083 32.7181V28.8453C19.9107 26.4912 20.8469 24.2342 22.5115 22.5696C24.1761 20.905 26.4331 19.9688 28.7872 19.9664H32.6569C33.226 19.9681 33.7897 19.8571 34.3156 19.6397C34.8414 19.4222 35.319 19.1028 35.7206 18.6997L39.0267 15.3905C40.6935 13.7281 42.9515 12.7944 45.3056 12.7944C47.6597 12.7944 49.9177 13.7281 51.5845 15.3905L54.8906 18.6997C55.292 19.1033 55.7694 19.4234 56.2953 19.6413C56.8212 19.8592 57.385 19.9708 57.9543 19.9694H61.827C64.1811 19.9718 66.4381 20.908 68.1027 22.5726C69.7673 24.2372 70.7036 26.4942 70.706 28.8483V32.7181C70.7042 33.2871 70.8152 33.8508 71.0327 34.3767C71.2501 34.9025 71.5696 35.3801 71.9726 35.7817L75.2788 39.0878C76.9412 40.7546 77.8749 43.0126 77.8749 45.3667C77.8749 47.7208 76.9412 49.9789 75.2788 51.6456L71.9726 54.9517C71.569 55.3531 71.249 55.8305 71.031 56.3564C70.8131 56.8823 70.7016 57.4461 70.7029 58.0154V61.8882C70.7005 64.2423 69.7643 66.4993 68.0997 68.1639C66.4351 69.8285 64.1781 70.7647 61.824 70.7671H57.9543C57.385 70.7657 56.8212 70.8772 56.2953 71.0952C55.7694 71.3131 55.292 71.6332 54.8906 72.0368L51.5845 75.3429C50.7603 76.1678 49.7814 76.8218 48.704 77.2674C47.6265 77.7131 46.4716 77.9416 45.3056 77.9399ZM28.7841 24.5119C27.6351 24.5127 26.5334 24.9695 25.7209 25.782C24.9084 26.5945 24.4516 27.6962 24.4508 28.8453V32.7181C24.455 33.8859 24.227 35.0429 23.7801 36.1218C23.3333 37.2008 22.6764 38.1801 21.8477 39.003L18.5446 42.3061C17.7326 43.1201 17.2766 44.223 17.2766 45.3728C17.2766 46.5226 17.7326 47.6254 18.5446 48.4395L21.8477 51.7426C22.6756 52.5647 23.3321 53.5431 23.779 54.6209C24.2258 55.6988 24.4542 56.8547 24.4508 58.0215V61.8942C24.4516 63.0433 24.9084 64.145 25.7209 64.9575C26.5334 65.77 27.6351 66.2268 28.7841 66.2276H32.6569C33.8236 66.2249 34.9793 66.4536 36.0571 66.9004C37.1348 67.3472 38.1133 68.0033 38.9358 68.8307L42.2389 72.1338C43.0529 72.9458 44.1558 73.4018 45.3056 73.4018C46.4554 73.4018 47.5583 72.9458 48.3723 72.1338L51.6754 68.8307C52.4979 68.0033 53.4764 67.3472 54.5541 66.9004C55.6319 66.4536 56.7876 66.2249 57.9543 66.2276H61.827C62.9761 66.2268 64.0778 65.77 64.8903 64.9575C65.7028 64.145 66.1596 63.0433 66.1604 61.8942V58.0154C66.157 56.8486 66.3854 55.6927 66.8322 54.6149C67.2791 53.537 67.9355 52.5586 68.7635 51.7365L72.0666 48.4334C72.8786 47.6194 73.3346 46.5165 73.3346 45.3667C73.3346 44.2169 72.8786 43.1141 72.0666 42.3L68.7635 39.003C67.9361 38.1805 67.28 37.202 66.8332 36.1242C66.3864 35.0465 66.1577 33.8908 66.1604 32.7241V28.8453C66.1596 27.6962 65.7028 26.5945 64.8903 25.782C64.0778 24.9695 62.9761 24.5127 61.827 24.5119H57.9543C56.7864 24.5161 55.6294 24.2881 54.5505 23.8413C53.4715 23.3944 52.4922 22.7375 51.6693 21.9088L48.3663 18.6057C47.5522 17.7937 46.4493 17.3377 45.2995 17.3377C44.1497 17.3377 43.0469 17.7937 42.2328 18.6057L38.9419 21.9088C38.1197 22.7368 37.1414 23.3932 36.0635 23.8401C34.9857 24.2869 33.8298 24.5153 32.663 24.5119H28.7841Z" fill="#9E9E9E"/>
<path d="M42.2752 53.7001C41.9767 53.7008 41.681 53.6422 41.4053 53.5278C41.1296 53.4134 40.8793 53.2453 40.6691 53.0334L34.6084 46.9727C34.2069 46.5418 33.9884 45.972 33.9988 45.3832C34.0092 44.7944 34.2477 44.2326 34.6641 43.8162C35.0805 43.3998 35.6423 43.1613 36.2311 43.1509C36.8199 43.1405 37.3897 43.3591 37.8206 43.7605L42.2752 48.2121L52.7905 37.6998C53.2213 37.2984 53.7912 37.0798 54.38 37.0902C54.9688 37.1006 55.5305 37.3391 55.947 37.7555C56.3634 38.1719 56.6019 38.7337 56.6123 39.3225C56.6227 39.9113 56.4041 40.4812 56.0026 40.912L43.8813 53.0334C43.671 53.2453 43.4208 53.4134 43.1451 53.5278C42.8694 53.6422 42.5737 53.7008 42.2752 53.7001Z" fill="#9E9E9E"/>
</svg>
